<?xml version="1.0" encoding="UTF-8"?>
<svg xmlns="http://www.w3.org/2000/svg" xmlns:xlink="http://www.w3.org/1999/xlink" width="50pt" height="50pt" viewBox="0 0 50 50" version="1.1">
<g id="surface1">
<path style=" stroke:none;fill-rule:nonzero;fill:#FFFFFF;fill-opacity:1;" d="M 4.960938 6.945313 C 2.230469 6.945313 0 9.175781 0 11.90625 L 0 37.699219 C 0 40.425781 2.230469 42.660156 4.960938 42.660156 L 44.644531 42.660156 C 47.371094 42.660156 49.601563 40.425781 49.601563 37.699219 L 49.601563 11.90625 C 49.601563 9.175781 47.371094 6.945313 44.644531 6.945313 Z M 4.960938 8.929688 L 44.644531 8.929688 C 46.296875 8.929688 47.617188 10.25 47.617188 11.90625 L 47.617188 37.699219 C 47.617188 39.351563 46.296875 40.675781 44.644531 40.675781 L 4.960938 40.675781 C 3.304688 40.675781 1.984375 39.351563 1.984375 37.699219 L 1.984375 11.90625 C 1.984375 10.25 3.304688 8.929688 4.960938 8.929688 Z M 8.496094 19.75 L 4.804688 28.179688 L 7.007813 28.179688 L 7.8125 26.289063 L 11.964844 26.289063 L 12.773438 28.179688 L 16.957031 28.179688 L 16.957031 21.917969 L 19.75 28.179688 L 21.640625 28.179688 L 24.460938 22.011719 L 24.460938 28.179688 L 26.539063 28.179688 L 26.539063 19.75 L 23.21875 19.75 L 20.679688 25.421875 L 18.136719 19.75 L 14.882813 19.75 L 14.882813 27.871094 L 11.253906 19.75 Z M 29.265625 19.75 L 29.265625 28.210938 L 37.203125 28.210938 L 39.683594 25.390625 L 42.132813 28.210938 L 44.765625 28.210938 L 41.046875 23.871094 L 44.765625 19.75 L 42.132813 19.75 L 39.746094 22.382813 L 37.449219 19.75 Z M 9.828125 21.515625 L 11.128906 24.492188 L 8.585938 24.492188 Z M 31.3125 21.546875 L 36.367188 21.578125 L 38.378906 23.871094 L 36.117188 26.414063 L 31.3125 26.414063 L 31.3125 24.738281 L 35.898438 24.738281 L 35.898438 23.128906 L 31.3125 23.128906 Z "/>
</g>
</svg>
