<?xml version="1.0" encoding="UTF-8"?>
<svg xmlns="http://www.w3.org/2000/svg" xmlns:xlink="http://www.w3.org/1999/xlink" width="48pt" height="48pt" viewBox="0 0 48 48" version="1.1">
<g id="surface1">
<path style=" stroke:none;fill-rule:nonzero;fill:#FFC107;fill-opacity:1;" d="M 43 24 C 43 34.492188 34.492188 43 24 43 C 13.507813 43 5 34.492188 5 24 C 5 13.507813 13.507813 5 24 5 C 34.492188 5 43 13.507813 43 24 Z "/>
<path style=" stroke:none;fill-rule:nonzero;fill:#FFE082;fill-opacity:1;" d="M 24 9 C 15.699219 9 9 15.699219 9 24 C 9 32.300781 15.699219 39 24 39 C 32.300781 39 39 32.300781 39 24 C 39 15.699219 32.300781 9 24 9 Z M 36.800781 21.800781 L 34.800781 22.101563 C 34.699219 21.5 34.5 20.898438 34.300781 20.300781 L 36.199219 19.601563 C 36.5 20.398438 36.699219 21.101563 36.800781 21.800781 Z M 35.398438 17.800781 L 33.601563 18.800781 C 33.300781 18.300781 33 17.800781 32.601563 17.300781 L 34.199219 16.101563 C 34.699219 16.5 35.101563 17.101563 35.398438 17.800781 Z M 25 11 L 24.800781 13 C 24.199219 13 23.601563 13 23 13 L 22.800781 11 C 23.601563 11 24.300781 11 25 11 Z M 20.800781 11.398438 L 21.300781 13.300781 C 20.699219 13.398438 20.101563 13.601563 19.601563 13.898438 L 18.800781 12.101563 C 19.398438 11.800781 20.101563 11.601563 20.800781 11.398438 Z M 16.898438 13.101563 L 18 14.800781 C 17.5 15.101563 17 15.5 16.601563 15.898438 L 15.199219 14.398438 C 15.699219 14 16.300781 13.5 16.898438 13.101563 Z M 13.699219 16 L 15.300781 17.199219 C 14.898438 17.699219 14.601563 18.199219 14.300781 18.699219 L 12.5 17.699219 C 12.898438 17.199219 13.300781 16.601563 13.699219 16 Z M 11.699219 19.800781 L 13.601563 20.398438 C 13.398438 21 13.300781 21.601563 13.199219 22.199219 L 11.199219 21.898438 C 11.300781 21.199219 11.5 20.5 11.699219 19.800781 Z M 11 24 L 13 24 C 13 24.601563 13.101563 25.199219 13.199219 25.800781 L 11.199219 26.101563 C 11.101563 25.5 11 24.699219 11 24 Z M 12.601563 30.199219 C 12.300781 29.601563 12 28.898438 11.699219 28.199219 L 13.601563 27.5 C 13.800781 28.101563 14 28.601563 14.300781 29.199219 Z M 15.199219 33.601563 C 14.699219 33.101563 14.199219 32.601563 13.699219 32 L 15.300781 30.800781 C 15.699219 31.300781 16.101563 31.699219 16.5 32.101563 Z M 18.800781 35.898438 C 18.101563 35.601563 17.5 35.300781 16.898438 34.898438 L 18 33.199219 C 18.5 33.5 19 33.800781 19.601563 34.101563 Z M 22.898438 37 C 22.199219 36.898438 21.5 36.800781 20.800781 36.699219 L 21.300781 34.800781 C 21.898438 34.898438 22.5 35 23.101563 35.101563 Z M 25.101563 37 L 24.898438 35 C 25.5 34.898438 26.101563 34.800781 26.699219 34.699219 L 27.199219 36.601563 C 26.5 36.800781 25.800781 36.898438 25.101563 37 Z M 27.601563 26.898438 C 27.601563 29.699219 24.898438 30.101563 24.398438 30.101563 L 24.398438 31.699219 L 23.101563 31.699219 L 23.101563 30.101563 C 22.699219 30.101563 19.601563 29.699219 19.601563 26.300781 L 22 26.300781 C 22 26.699219 22 28.300781 23.800781 28.300781 C 25.300781 28.300781 25.300781 27.101563 25.300781 26.898438 C 25.300781 24.300781 20.101563 25.398438 20.101563 21.398438 C 20.101563 18.898438 22.300781 18.199219 23.300781 18.199219 L 23.300781 16.5 L 24.601563 16.5 L 24.601563 18.199219 C 25.398438 18.300781 27.601563 18.898438 27.601563 21.898438 L 25.300781 21.898438 C 25.300781 21.300781 25.101563 20 23.800781 20 C 22.398438 20 22.398438 21.199219 22.398438 21.398438 C 22.5 23.800781 27.601563 22.800781 27.601563 26.898438 Z M 26.699219 13.300781 L 27.199219 11.398438 C 27.898438 11.601563 28.601563 11.800781 29.199219 12.101563 L 28.398438 13.898438 C 27.800781 13.699219 27.300781 13.5 26.699219 13.300781 Z M 29.199219 35.898438 L 28.398438 34.101563 C 29 33.898438 29.5 33.601563 30 33.199219 L 31.101563 34.898438 C 30.5 35.300781 29.898438 35.601563 29.199219 35.898438 Z M 30 14.800781 L 31.101563 13.101563 C 31.699219 13.5 32.300781 13.898438 32.800781 14.398438 L 31.5 15.898438 C 31 15.5 30.5 15.101563 30 14.800781 Z M 32.800781 33.601563 L 31.398438 32.101563 C 31.800781 31.699219 32.300781 31.199219 32.601563 30.800781 L 34.199219 32 C 33.800781 32.5 33.300781 33.101563 32.800781 33.601563 Z M 35.398438 30.199219 L 33.601563 29.199219 C 33.898438 28.699219 34.101563 28.101563 34.300781 27.5 L 36.199219 28.101563 C 36.101563 28.898438 35.800781 29.601563 35.398438 30.199219 Z M 34.898438 25.800781 C 35 25.199219 35 24.601563 35 24 L 37 24 C 37 24.800781 36.898438 25.5 36.800781 26.199219 Z "/>
</g>
</svg>
