<?xml version="1.0" encoding="UTF-8"?>
<svg xmlns="http://www.w3.org/2000/svg" xmlns:xlink="http://www.w3.org/1999/xlink" width="52pt" height="52pt" viewBox="0 0 52 52" version="1.1">
<g id="surface1">
<path style=" stroke:none;fill-rule:nonzero;fill:#ECA659;fill-opacity:1;" d="M 36 0.375 C 27.367188 0.375 20.375 4.234375 20.375 9 C 20.375 13.765625 27.367188 17.625 36 17.625 C 44.632813 17.625 51.625 13.765625 51.625 9 C 51.625 4.234375 44.632813 0.375 36 0.375 Z M 51.625 11.5625 C 51.625 16.328125 44.632813 20.1875 36 20.1875 C 27.390625 20.1875 20.414063 16.367188 20.375 11.625 C 20.375 13.4375 20.375 15 20.375 15 C 20.375 17.039063 21.679688 18.898438 23.8125 20.375 C 25.976563 20.96875 27.898438 21.78125 29.5 22.8125 C 31.484375 23.320313 33.671875 23.625 36 23.625 C 44.632813 23.625 51.625 19.765625 51.625 15 Z M 51.625 17.5625 C 51.625 22.328125 44.632813 26.1875 36 26.1875 C 34.953125 26.1875 33.929688 26.109375 32.9375 26 C 33.726563 27.09375 34.273438 28.289063 34.5 29.5625 C 35 29.59375 35.492188 29.625 36 29.625 C 44.632813 29.625 51.625 25.765625 51.625 21 Z M 16 22.375 C 7.367188 22.375 0.375 26.234375 0.375 31 C 0.375 35.765625 7.367188 39.625 16 39.625 C 24.632813 39.625 31.625 35.765625 31.625 31 C 31.625 26.234375 24.632813 22.375 16 22.375 Z M 51.625 23.5625 C 51.625 28.328125 44.632813 32.1875 36 32.1875 C 35.5 32.1875 34.992188 32.148438 34.5 32.125 C 34.476563 32.273438 34.46875 32.476563 34.4375 32.625 C 34.539063 32.929688 34.625 33.226563 34.625 33.5625 L 34.625 35.5625 C 35.078125 35.585938 35.53125 35.625 36 35.625 C 44.632813 35.625 51.625 31.765625 51.625 27 Z M 51.625 29.5625 C 51.625 34.328125 44.632813 38.1875 36 38.1875 C 35.5 38.1875 34.992188 38.148438 34.5 38.125 C 34.476563 38.273438 34.46875 38.476563 34.4375 38.625 C 34.539063 38.921875 34.625 39.226563 34.625 39.5625 L 34.625 41.5625 C 35.078125 41.585938 35.53125 41.625 36 41.625 C 44.632813 41.625 51.625 37.765625 51.625 33 Z M 31.625 33.5625 C 31.625 38.328125 24.632813 42.1875 16 42.1875 C 7.390625 42.1875 0.414063 38.367188 0.375 33.625 C 0.375 35.4375 0.375 37 0.375 37 C 0.375 41.765625 7.367188 45.625 16 45.625 C 24.632813 45.625 31.625 41.765625 31.625 37 Z M 31.625 39.5625 C 31.625 44.328125 24.632813 48.1875 16 48.1875 C 7.390625 48.1875 0.414063 44.367188 0.375 39.625 C 0.375 41.4375 0.375 43 0.375 43 C 0.375 47.765625 7.367188 51.625 16 51.625 C 24.632813 51.625 31.625 47.765625 31.625 43 Z "/>
</g>
</svg>
