<?xml version="1.0" encoding="UTF-8"?>
<svg xmlns="http://www.w3.org/2000/svg" xmlns:xlink="http://www.w3.org/1999/xlink" width="50pt" height="50pt" viewBox="0 0 50 50" version="1.1">
<g id="surface1">
<path style=" stroke:none;fill-rule:nonzero;fill:#C9AA71;fill-opacity:1;" d="M 4.960938 6.945313 C 2.230469 6.945313 0 9.175781 0 11.90625 L 0 37.699219 C 0 40.425781 2.230469 42.660156 4.960938 42.660156 L 44.644531 42.660156 C 47.371094 42.660156 49.601563 40.425781 49.601563 37.699219 L 49.601563 11.90625 C 49.601563 9.175781 47.371094 6.945313 44.644531 6.945313 Z M 4.960938 8.929688 L 44.644531 8.929688 C 46.296875 8.929688 47.617188 10.25 47.617188 11.90625 L 47.617188 37.699219 C 47.617188 39.351563 46.296875 40.675781 44.644531 40.675781 L 4.960938 40.675781 C 3.304688 40.675781 1.984375 39.351563 1.984375 37.699219 L 1.984375 11.90625 C 1.984375 10.25 3.304688 8.929688 4.960938 8.929688 Z M 21.019531 21.730469 C 19.203125 21.730469 17.734375 23.171875 17.734375 24.957031 C 17.734375 26.761719 19.164063 28.148438 20.988281 28.148438 C 21.503906 28.148438 21.960938 28.066406 22.507813 27.808594 L 22.507813 26.382813 C 22.027344 26.863281 21.59375 27.066406 21.050781 27.066406 C 19.839844 27.066406 18.972656 26.199219 18.972656 24.957031 C 18.972656 23.777344 19.863281 22.847656 20.988281 22.847656 C 21.558594 22.847656 22.007813 23.042969 22.507813 23.53125 L 22.507813 22.136719 C 21.980469 21.867188 21.535156 21.730469 21.019531 21.730469 Z M 15.347656 21.761719 C 14.257813 21.761719 13.425781 22.523438 13.425781 23.53125 C 13.425781 24.375 13.824219 24.8125 14.941406 25.234375 C 15.59375 25.480469 16.121094 25.605469 16.121094 26.195313 C 16.121094 26.695313 15.726563 27.066406 15.191406 27.066406 C 14.621094 27.066406 14.164063 26.792969 13.890625 26.257813 L 13.113281 27.003906 C 13.667969 27.8125 14.34375 28.179688 15.253906 28.179688 C 16.496094 28.179688 17.359375 27.355469 17.359375 26.164063 C 17.359375 25.1875 16.957031 24.742188 15.59375 24.242188 C 14.875 23.976563 14.664063 23.800781 14.664063 23.46875 C 14.664063 23.082031 15.046875 22.785156 15.5625 22.785156 C 15.921875 22.785156 16.210938 22.933594 16.523438 23.28125 L 17.144531 22.445313 C 16.628906 21.996094 16.019531 21.761719 15.347656 21.761719 Z M 26.074219 21.761719 C 24.300781 21.761719 22.847656 23.1875 22.847656 24.957031 C 22.847656 26.726563 24.300781 28.179688 26.074219 28.179688 C 27.84375 28.179688 29.265625 26.726563 29.265625 24.957031 C 29.265625 23.1875 27.84375 21.761719 26.074219 21.761719 Z M 5.859375 21.886719 L 5.859375 28.027344 L 7.625 28.027344 C 10.300781 28.027344 10.914063 25.914063 10.914063 24.957031 C 10.914063 23.144531 9.570313 21.886719 7.625 21.886719 Z M 11.472656 21.886719 L 11.472656 28.027344 L 12.679688 28.027344 L 12.679688 21.886719 Z M 29.050781 21.886719 L 31.652344 28.179688 L 32.304688 28.179688 L 34.96875 21.886719 L 33.667969 21.886719 L 31.992188 26.011719 L 30.351563 21.886719 Z M 35.496094 21.886719 L 35.496094 28.027344 L 38.90625 28.027344 L 38.90625 26.972656 L 36.707031 26.972656 L 36.707031 25.328125 L 38.816406 25.328125 L 38.816406 24.273438 L 36.707031 24.273438 L 36.707031 22.910156 L 38.90625 22.910156 L 38.90625 21.886719 Z M 39.683594 21.886719 L 39.683594 28.027344 L 40.890625 28.027344 L 40.890625 25.546875 L 41.046875 25.546875 L 42.691406 28.027344 L 44.179688 28.027344 L 42.253906 25.453125 C 43.160156 25.265625 43.652344 24.628906 43.652344 23.683594 C 43.652344 22.535156 42.863281 21.886719 41.480469 21.886719 Z M 40.890625 22.847656 L 41.261719 22.847656 C 42.011719 22.847656 42.410156 23.152344 42.410156 23.746094 C 42.410156 24.363281 41.996094 24.707031 41.234375 24.707031 L 40.890625 24.707031 Z M 7.070313 22.910156 L 7.472656 22.910156 C 9.101563 22.910156 9.671875 23.992188 9.671875 24.957031 C 9.671875 25.417969 9.535156 26.972656 7.378906 26.972656 L 7.070313 26.972656 Z "/>
</g>
</svg>
