<?xml version="1.0" encoding="UTF-8"?>
<svg xmlns="http://www.w3.org/2000/svg" xmlns:xlink="http://www.w3.org/1999/xlink" width="50pt" height="50pt" viewBox="0 0 50 50" version="1.1">
<g id="surface1">
<path style=" stroke:none;fill-rule:nonzero;fill:#FFFFFF;fill-opacity:1;" d="M 6.945313 8.929688 C 4.207031 8.929688 1.984375 11.152344 1.984375 13.890625 L 1.984375 15.871094 L 47.617188 15.871094 L 47.617188 13.890625 C 47.617188 11.152344 45.394531 8.929688 42.660156 8.929688 Z M 1.984375 20.832031 L 1.984375 35.714844 C 1.984375 38.449219 4.207031 40.675781 6.945313 40.675781 L 31.554688 40.675781 C 34.230469 46.800781 38.972656 49.261719 39.1875 49.40625 L 39.683594 49.601563 L 40.179688 49.40625 C 40.574219 49.207031 49.601563 44.148438 49.601563 31.648438 L 49.601563 30.851563 L 48.808594 30.65625 C 48.378906 30.5625 47.992188 30.46875 47.617188 30.371094 L 47.617188 20.832031 Z M 8.929688 23.808594 L 24.800781 23.808594 L 24.800781 25.792969 L 8.929688 25.792969 Z M 39.683594 29.664063 C 40.773438 29.664063 41.367188 29.960938 42.460938 30.554688 C 43.652344 31.050781 45.140625 31.84375 47.617188 32.441406 C 47.320313 41.667969 41.367188 46.226563 39.683594 47.320313 C 37.894531 46.328125 32.042969 42.0625 31.746094 32.441406 C 34.328125 31.84375 35.8125 31.050781 36.902344 30.554688 C 37.996094 29.960938 38.589844 29.664063 39.683594 29.664063 Z "/>
</g>
</svg>
