<?xml version="1.0" encoding="UTF-8"?>
<svg xmlns="http://www.w3.org/2000/svg" xmlns:xlink="http://www.w3.org/1999/xlink" width="50pt" height="50pt" viewBox="0 0 50 50" version="1.1">
<g id="surface1">
<path style=" stroke:none;fill-rule:nonzero;fill:#FFFFFF;fill-opacity:1;" d="M 24.800781 0.992188 C 24.253906 0.992188 23.808594 1.4375 23.808594 1.984375 L 23.808594 15.871094 L 25.792969 15.871094 L 25.792969 1.984375 C 25.792969 1.4375 25.351563 0.992188 24.800781 0.992188 Z M 25.792969 15.871094 L 25.792969 32.335938 L 32.023438 26.074219 C 32.414063 25.683594 33.0625 25.683594 33.449219 26.074219 C 33.839844 26.460938 33.839844 27.109375 33.449219 27.5 L 24.800781 36.117188 L 16.152344 27.5 C 15.765625 27.109375 15.765625 26.460938 16.152344 26.074219 C 16.539063 25.683594 17.191406 25.683594 17.578125 26.074219 L 23.808594 32.335938 L 23.808594 15.871094 L 6.945313 15.871094 L 6.945313 49.601563 L 42.660156 49.601563 L 42.660156 15.871094 Z "/>
</g>
</svg>
