<?xml version="1.0" encoding="UTF-8"?>
<svg xmlns="http://www.w3.org/2000/svg" xmlns:xlink="http://www.w3.org/1999/xlink" width="50pt" height="50pt" viewBox="0 0 50 50" version="1.1">
<g id="surface1">
<path style=" stroke:none;fill-rule:nonzero;fill:#FFFFFF;fill-opacity:1;" d="M 24.707031 2.945313 C 24.664063 2.953125 24.625 2.964844 24.585938 2.976563 C 24.125 3.082031 23.796875 3.496094 23.808594 3.96875 L 23.808594 32.304688 L 17.578125 26.074219 C 17.433594 25.929688 17.253906 25.828125 17.050781 25.792969 C 16.917969 25.765625 16.78125 25.765625 16.648438 25.792969 C 16.277344 25.859375 15.976563 26.128906 15.871094 26.492188 C 15.769531 26.855469 15.875 27.242188 16.152344 27.5 L 23.964844 35.28125 C 24.039063 35.394531 24.132813 35.484375 24.242188 35.558594 L 24.800781 36.117188 L 25.359375 35.558594 C 25.390625 35.539063 25.421875 35.519531 25.453125 35.496094 L 25.515625 35.433594 C 25.515625 35.421875 25.515625 35.414063 25.515625 35.402344 C 25.539063 35.386719 25.558594 35.367188 25.578125 35.34375 L 33.449219 27.5 C 33.847656 27.101563 33.847656 26.46875 33.449219 26.074219 C 33.054688 25.675781 32.421875 25.675781 32.023438 26.074219 L 25.792969 32.304688 L 25.792969 3.96875 C 25.792969 3.9375 25.792969 3.90625 25.792969 3.875 C 25.792969 3.84375 25.792969 3.8125 25.792969 3.78125 C 25.78125 3.707031 25.757813 3.636719 25.730469 3.566406 C 25.710938 3.542969 25.691406 3.523438 25.667969 3.503906 C 25.644531 3.4375 25.617188 3.375 25.578125 3.316406 C 25.558594 3.292969 25.539063 3.273438 25.515625 3.253906 C 25.484375 3.230469 25.453125 3.210938 25.421875 3.191406 C 25.222656 3.019531 24.96875 2.929688 24.707031 2.945313 Z M 1.984375 35.714844 L 1.984375 41.667969 C 1.984375 44.390625 4.21875 46.628906 6.945313 46.628906 L 42.660156 46.628906 C 45.382813 46.628906 47.617188 44.390625 47.617188 41.667969 L 47.617188 35.714844 L 45.636719 35.714844 L 45.636719 41.667969 C 45.636719 43.308594 44.300781 44.644531 42.660156 44.644531 L 6.945313 44.644531 C 5.300781 44.644531 3.96875 43.308594 3.96875 41.667969 L 3.96875 35.714844 Z "/>
</g>
</svg>
