<?xml version="1.0" encoding="UTF-8"?>
<svg xmlns="http://www.w3.org/2000/svg" xmlns:xlink="http://www.w3.org/1999/xlink" width="50pt" height="50pt" viewBox="0 0 50 50" version="1.1">
<g id="surface1">
<path style=" stroke:none;fill-rule:nonzero;fill:#FFFFFF;fill-opacity:1;" d="M 43.640625 23.355469 C 43.402344 17.546875 38.601563 12.898438 32.738281 12.898438 C 31.726563 12.898438 30.757813 13.027344 29.796875 13.300781 C 27.578125 9.976563 23.828125 7.9375 19.839844 7.9375 C 13.472656 7.9375 8.257813 12.957031 7.953125 19.253906 C 3.296875 20.53125 0 24.828125 0 29.761719 C 0 35.78125 4.894531 40.675781 10.914063 40.675781 L 40.675781 40.675781 C 45.601563 40.675781 49.601563 36.671875 49.601563 31.746094 C 49.601563 27.945313 47.136719 24.539063 43.640625 23.355469 Z M 24.800781 35.132813 L 18.148438 28.480469 L 19.550781 27.078125 L 23.808594 31.335938 L 23.808594 19.839844 L 25.792969 19.839844 L 25.792969 31.335938 L 30.050781 27.078125 L 31.457031 28.480469 Z "/>
</g>
</svg>
