<?xml version="1.0" encoding="UTF-8"?>
<svg xmlns="http://www.w3.org/2000/svg" xmlns:xlink="http://www.w3.org/1999/xlink" width="50pt" height="50pt" viewBox="0 0 50 50" version="1.1">
<g id="surface1">
<path style=" stroke:none;fill-rule:nonzero;fill:#ECA659;fill-opacity:1;" d="M 21.90625 7 C 11.980469 7 3.90625 15.074219 3.90625 25 C 3.90625 34.925781 11.980469 43 21.90625 43 C 31.832031 43 39.90625 34.925781 39.90625 25 C 39.90625 15.074219 31.832031 7 21.90625 7 Z M 30.75 7.09375 C 37.339844 10.367188 41.90625 17.15625 41.90625 25 C 41.90625 32.84375 37.339844 39.632813 30.75 42.90625 C 39.804688 41.972656 46.90625 34.296875 46.90625 25 C 46.90625 15.703125 39.804688 8.027344 30.75 7.09375 Z M 21.5 16.5 L 23 16.5 L 23 33.5 L 21 33.5 L 21 21.3125 L 16.59375 21.3125 L 16.59375 19.6875 C 17.195313 19.6875 17.710938 19.695313 18.3125 19.59375 C 18.8125 19.492188 19.3125 19.292969 19.8125 19.09375 C 20.210938 18.894531 20.605469 18.492188 20.90625 18.09375 C 21.207031 17.695313 21.398438 17.199219 21.5 16.5 Z "/>
</g>
</svg>
