<?xml version="1.0" encoding="UTF-8"?>
<svg xmlns="http://www.w3.org/2000/svg" xmlns:xlink="http://www.w3.org/1999/xlink" width="50pt" height="50pt" viewBox="0 0 50 50" version="1.1">
<g id="surface1">
<path style=" stroke:none;fill-rule:nonzero;fill:#ECA659;fill-opacity:1;" d="M 25 2 C 12.308594 2 2 12.308594 2 25 C 2 37.691406 12.308594 48 25 48 C 37.691406 48 48 37.691406 48 25 C 48 12.308594 37.691406 2 25 2 Z M 25 4 C 36.609375 4 46 13.390625 46 25 C 46 36.609375 36.609375 46 25 46 C 13.390625 46 4 36.609375 4 25 C 4 13.390625 13.390625 4 25 4 Z M 23.78125 12.90625 C 23.5625 12.90625 23.421875 13.046875 23.421875 13.265625 L 23.421875 15.882813 C 23.421875 16.097656 23.5625 16.238281 23.78125 16.238281 L 26.21875 16.238281 C 26.433594 16.238281 26.578125 16.097656 26.578125 15.882813 L 26.578125 13.265625 C 26.578125 13.046875 26.433594 12.90625 26.21875 12.90625 Z M 23.851563 20.113281 C 23.636719 20.113281 23.496094 20.257813 23.496094 20.472656 L 23.496094 36.9375 C 23.496094 37.152344 23.636719 37.292969 23.851563 37.292969 L 26.144531 37.292969 C 26.363281 37.292969 26.503906 37.152344 26.503906 36.9375 L 26.503906 20.472656 C 26.503906 20.257813 26.363281 20.113281 26.144531 20.113281 Z "/>
</g>
</svg>
