<?xml version="1.0" encoding="UTF-8"?>
<svg xmlns="http://www.w3.org/2000/svg" xmlns:xlink="http://www.w3.org/1999/xlink" width="50pt" height="50pt" viewBox="0 0 50 50" version="1.1">
<g id="surface1">
<path style=" stroke:none;fill-rule:nonzero;fill:#FFFFFF;fill-opacity:1;" d="M 24.800781 0.992188 C 23.640625 0.992188 19.839844 1.136719 19.839844 2.976563 L 19.839844 13.890625 C 19.839844 14.980469 20.734375 15.871094 21.824219 15.871094 C 21.949219 15.871094 22.082031 15.859375 22.199219 15.8125 C 22.207031 15.808594 23.085938 15.46875 24.800781 15.46875 C 26.496094 15.46875 27.375 15.800781 27.40625 15.8125 C 27.523438 15.859375 27.648438 15.871094 27.777344 15.871094 C 28.871094 15.871094 29.761719 14.980469 29.761719 13.890625 L 29.761719 2.976563 C 29.761719 1.136719 25.964844 0.992188 24.800781 0.992188 Z M 12.742188 2.046875 C 10.394531 2.109375 7.648438 2.832031 5.238281 5.238281 C 0.417969 10.058594 2.300781 16.234375 2.914063 17.855469 C 2.941406 17.855469 2.949219 17.855469 2.976563 17.855469 L 13.890625 17.855469 C 14.644531 17.855469 15.335938 18.082031 15.933594 18.445313 C 16.628906 17.480469 17.480469 16.628906 18.445313 15.933594 C 18.078125 15.335938 17.855469 14.644531 17.855469 13.890625 L 17.855469 2.976563 C 17.855469 2.953125 17.855469 2.9375 17.855469 2.914063 C 17.042969 2.609375 15.089844 1.984375 12.742188 2.046875 Z M 35.992188 2.046875 C 34.035156 2.128906 32.460938 2.648438 31.746094 2.914063 C 31.746094 2.9375 31.746094 2.953125 31.746094 2.976563 L 31.746094 13.890625 C 31.746094 14.644531 31.519531 15.335938 31.15625 15.933594 C 32.121094 16.628906 32.972656 17.480469 33.667969 18.445313 C 34.269531 18.078125 34.957031 17.855469 35.714844 17.855469 L 46.628906 17.855469 C 46.652344 17.855469 46.660156 17.855469 46.6875 17.855469 C 47.300781 16.234375 49.183594 10.058594 44.363281 5.238281 C 41.65625 2.527344 38.507813 1.941406 35.992188 2.046875 Z M 12.867188 4 C 13.671875 3.980469 14.414063 4.070313 15.066406 4.183594 C 10.285156 6.445313 6.445313 10.285156 4.183594 15.066406 C 3.785156 12.859375 3.828125 9.503906 6.664063 6.664063 C 8.664063 4.660156 10.929688 4.046875 12.867188 4 Z M 35.929688 4 C 38.023438 3.886719 40.652344 4.378906 42.9375 6.664063 C 45.773438 9.503906 45.816406 12.859375 45.417969 15.066406 C 43.160156 10.285156 39.316406 6.445313 34.535156 4.183594 C 34.960938 4.109375 35.429688 4.027344 35.929688 4 Z M 2.976563 19.839844 C 1.136719 19.839844 0.992188 23.640625 0.992188 24.800781 C 0.992188 25.964844 1.136719 29.761719 2.976563 29.761719 L 13.890625 29.761719 C 14.980469 29.761719 15.871094 28.871094 15.871094 27.777344 C 15.871094 27.652344 15.859375 27.523438 15.8125 27.40625 C 15.808594 27.398438 15.46875 26.523438 15.46875 24.800781 C 15.46875 23.085938 15.8125 22.199219 15.8125 22.199219 C 15.863281 22.078125 15.871094 21.957031 15.871094 21.824219 C 15.871094 20.734375 14.980469 19.839844 13.890625 19.839844 Z M 35.714844 19.839844 C 34.621094 19.839844 33.730469 20.734375 33.730469 21.824219 C 33.730469 21.949219 33.746094 22.082031 33.792969 22.199219 C 33.796875 22.207031 34.132813 23.082031 34.132813 24.800781 C 34.132813 26.519531 33.792969 27.40625 33.792969 27.40625 C 33.742188 27.527344 33.730469 27.644531 33.730469 27.777344 C 33.730469 28.871094 34.621094 29.761719 35.714844 29.761719 L 46.628906 29.761719 C 48.46875 29.761719 48.609375 25.964844 48.609375 24.800781 C 48.609375 23.640625 48.46875 19.839844 46.628906 19.839844 Z M 15.933594 31.15625 C 15.335938 31.523438 14.644531 31.746094 13.890625 31.746094 L 2.976563 31.746094 C 2.949219 31.746094 2.941406 31.746094 2.914063 31.746094 C 2.300781 33.371094 0.417969 39.542969 5.238281 44.363281 C 7.761719 46.886719 10.664063 47.558594 13.082031 47.558594 C 15.277344 47.558594 17.078125 46.984375 17.855469 46.6875 C 17.855469 46.664063 17.855469 46.648438 17.855469 46.628906 L 17.855469 35.714844 C 17.855469 34.957031 18.082031 34.269531 18.445313 33.667969 C 17.480469 32.972656 16.628906 32.121094 15.933594 31.15625 Z M 33.667969 31.15625 C 32.972656 32.121094 32.121094 32.972656 31.15625 33.667969 C 31.523438 34.269531 31.746094 34.957031 31.746094 35.714844 L 31.746094 46.628906 C 31.746094 46.648438 31.746094 46.664063 31.746094 46.6875 C 32.523438 46.984375 34.328125 47.558594 36.519531 47.558594 C 38.9375 47.558594 41.84375 46.882813 44.363281 44.363281 C 49.183594 39.542969 47.300781 33.371094 46.6875 31.746094 C 46.660156 31.746094 46.652344 31.746094 46.628906 31.746094 L 35.714844 31.746094 C 34.957031 31.746094 34.269531 31.519531 33.667969 31.15625 Z M 21.824219 33.730469 C 20.734375 33.730469 19.839844 34.621094 19.839844 35.714844 L 19.839844 46.628906 C 19.839844 48.46875 23.640625 48.609375 24.800781 48.609375 C 25.964844 48.609375 29.761719 48.46875 29.761719 46.628906 L 29.761719 35.714844 C 29.761719 34.621094 28.871094 33.730469 27.777344 33.730469 C 27.652344 33.730469 27.523438 33.746094 27.40625 33.792969 C 27.398438 33.796875 26.519531 34.132813 24.800781 34.132813 C 23.085938 34.132813 22.199219 33.792969 22.199219 33.792969 C 22.078125 33.742188 21.957031 33.730469 21.824219 33.730469 Z M 4.183594 34.535156 C 6.445313 39.316406 10.285156 43.160156 15.066406 45.417969 C 12.859375 45.816406 9.503906 45.773438 6.664063 42.9375 C 3.828125 40.101563 3.785156 36.746094 4.183594 34.535156 Z M 45.417969 34.535156 C 45.816406 36.746094 45.773438 40.101563 42.9375 42.9375 C 40.101563 45.773438 36.746094 45.816406 34.535156 45.417969 C 39.316406 43.160156 43.160156 39.316406 45.417969 34.535156 Z "/>
</g>
</svg>
