<?xml version="1.0" encoding="UTF-8"?>
<svg xmlns="http://www.w3.org/2000/svg" xmlns:xlink="http://www.w3.org/1999/xlink" width="50pt" height="50pt" viewBox="0 0 50 50" version="1.1">
<g id="surface1">
<path style=" stroke:none;fill-rule:nonzero;fill:#FFFFFF;fill-opacity:1;" d="M 4.960938 6.945313 C 2.230469 6.945313 0 9.175781 0 11.90625 L 0 37.699219 C 0 40.425781 2.230469 42.660156 4.960938 42.660156 L 44.644531 42.660156 C 47.371094 42.660156 49.601563 40.425781 49.601563 37.699219 L 49.601563 11.90625 C 49.601563 9.175781 47.371094 6.945313 44.644531 6.945313 Z M 4.960938 8.929688 L 44.644531 8.929688 C 46.296875 8.929688 47.617188 10.25 47.617188 11.90625 L 47.617188 37.699219 C 47.617188 39.351563 46.296875 40.675781 44.644531 40.675781 L 4.960938 40.675781 C 3.304688 40.675781 1.984375 39.351563 1.984375 37.699219 L 1.984375 11.90625 C 1.984375 10.25 3.304688 8.929688 4.960938 8.929688 Z M 16.863281 12.898438 C 10.300781 12.898438 4.960938 18.238281 4.960938 24.800781 C 4.960938 31.367188 10.300781 36.707031 16.863281 36.707031 C 19.917969 36.707031 22.695313 35.53125 24.800781 33.636719 C 26.910156 35.53125 29.6875 36.707031 32.738281 36.707031 C 39.304688 36.707031 44.644531 31.367188 44.644531 24.800781 C 44.644531 18.238281 39.304688 12.898438 32.738281 12.898438 C 29.6875 12.898438 26.910156 14.070313 24.800781 15.964844 C 22.695313 14.070313 19.917969 12.898438 16.863281 12.898438 Z M 32.738281 14.882813 C 38.230469 14.882813 42.660156 19.308594 42.660156 24.800781 C 42.660156 30.292969 38.230469 34.722656 32.738281 34.722656 C 30.207031 34.722656 27.886719 33.796875 26.132813 32.242188 C 27.773438 30.199219 28.769531 27.617188 28.769531 24.800781 C 28.769531 21.984375 27.773438 19.402344 26.132813 17.359375 C 27.886719 15.808594 30.207031 14.882813 32.738281 14.882813 Z "/>
</g>
</svg>
