<?xml version="1.0" encoding="UTF-8"?>
<svg xmlns="http://www.w3.org/2000/svg" xmlns:xlink="http://www.w3.org/1999/xlink" width="50pt" height="50pt" viewBox="0 0 50 50" version="1.1">
<g id="surface1">
<path style=" stroke:none;fill-rule:nonzero;fill:#FFFFFF;fill-opacity:1;" d="M 23.40625 1.023438 C 21.949219 1.023438 20.929688 2.183594 20.214844 3.191406 C 19.550781 4.125 18.472656 4.152344 16.460938 4.152344 C 15.390625 4.152344 14.019531 4.253906 13.175781 4.867188 C 14.433594 6.980469 16.078125 8.550781 17.578125 8.960938 C 18.371094 9.175781 19.011719 9.035156 19.59375 8.554688 C 20.558594 7.640625 21.628906 6.65625 22.941406 6.757813 C 23.875 6.824219 24.699219 7.398438 25.667969 8.617188 C 25.84375 8.832031 26.09375 8.941406 26.382813 8.960938 C 26.898438 8.996094 27.539063 8.6875 28.085938 8.183594 C 28.667969 7.664063 29.339844 7.132813 30.039063 6.574219 C 31.175781 5.660156 33.191406 4.054688 33.511719 3.285156 C 33.21875 3.109375 32.8125 2.976563 32.242188 2.976563 C 31.457031 2.976563 30.691406 3.171875 29.949219 3.347656 C 29.3125 3.5 28.71875 3.628906 28.210938 3.628906 C 27.761719 3.628906 27.433594 3.53125 27.1875 3.285156 C 25.660156 1.699219 24.539063 1.023438 23.40625 1.023438 Z M 34.070313 5.734375 C 33.308594 6.503906 32.332031 7.28125 31.28125 8.121094 C 30.617188 8.652344 29.964844 9.191406 29.421875 9.671875 C 28.464844 10.546875 27.296875 11.015625 26.226563 10.945313 C 25.394531 10.886719 24.6875 10.503906 24.152344 9.859375 C 23.390625 8.898438 22.964844 8.726563 22.785156 8.710938 C 22.351563 8.699219 21.566406 9.441406 20.925781 10.042969 C 20.128906 10.703125 19.21875 11.035156 18.261719 11.035156 C 17.859375 11.035156 17.46875 10.964844 17.050781 10.851563 C 16.242188 10.628906 15.441406 10.179688 14.664063 9.578125 C 15.640625 10.617188 17.023438 12.460938 17.269531 15.035156 C 19.320313 16.308594 24.09375 18.453125 29.667969 15.316406 C 29.984375 15.136719 30.347656 14.882813 30.753906 14.601563 C 30.785156 14.578125 30.8125 14.5625 30.847656 14.539063 C 30.574219 10.855469 32.738281 8.007813 33.015625 7.65625 L 33.109375 7.535156 C 33.449219 7.003906 33.835938 6.375 34.070313 5.734375 Z M 37.914063 11.90625 C 35.972656 11.816406 34.242188 12.484375 32.832031 13.269531 C 32.804688 13.574219 32.816406 13.878906 32.832031 14.199219 C 33.277344 14.382813 33.71875 14.605469 34.164063 14.820313 C 36.242188 15.820313 38.277344 17.1875 40.117188 18.847656 C 40.140625 18.851563 40.15625 18.847656 40.179688 18.847656 C 40.421875 18.847656 40.667969 18.753906 40.859375 18.570313 C 41.261719 18.195313 41.265625 17.574219 40.890625 17.175781 C 39.183594 15.371094 37.074219 14.574219 35 14.414063 C 36.636719 13.757813 38.550781 13.574219 40.707031 14.757813 C 41.1875 15.019531 41.773438 14.835938 42.039063 14.355469 C 42.300781 13.875 42.117188 13.285156 41.636719 13.019531 C 40.308594 12.296875 39.082031 11.960938 37.914063 11.90625 Z M 32.179688 16.027344 C 32.074219 16.097656 31.972656 16.175781 31.871094 16.246094 C 31.414063 16.558594 31.019531 16.816406 30.660156 17.019531 C 28.21875 18.394531 25.890625 18.910156 23.808594 18.910156 C 20.199219 18.910156 17.332031 17.433594 15.902344 16.523438 C 9.609375 19.222656 3.96875 27.09375 3.96875 33.824219 C 3.96875 44.644531 10.984375 46.628906 24.800781 46.628906 C 38.621094 46.628906 45.636719 44.644531 45.636719 33.824219 C 45.636719 25.808594 38.945313 18.730469 32.179688 16.027344 Z M 23.3125 21.824219 L 25.113281 21.824219 L 25.113281 23.902344 C 27.691406 24.398438 28.582031 26.195313 29.078125 28.179688 L 27.28125 28.179688 C 26.984375 26.792969 26.097656 25.609375 24.210938 25.609375 C 21.535156 25.609375 21.238281 27.386719 21.238281 28.179688 C 21.238281 30.0625 23.011719 30.445313 24.894531 30.941406 C 27.273438 31.535156 29.667969 32.335938 29.667969 35.3125 C 29.667969 38.882813 26.5 39.890625 25.113281 39.992188 L 25.113281 41.667969 L 23.3125 41.667969 L 23.3125 39.992188 C 21.824219 39.695313 19.148438 38.777344 18.847656 34.910156 L 20.648438 34.910156 C 20.648438 36.097656 21.433594 38.289063 24.210938 38.289063 C 26.890625 38.289063 27.589844 37.015625 27.589844 35.527344 C 27.589844 31.164063 19.253906 34.121094 19.253906 28.367188 C 19.253906 25.191406 21.824219 24.007813 23.3125 23.808594 Z "/>
</g>
</svg>
