<?xml version="1.0" encoding="UTF-8"?>
<svg xmlns="http://www.w3.org/2000/svg" xmlns:xlink="http://www.w3.org/1999/xlink" width="50pt" height="50pt" viewBox="0 0 50 50" version="1.1">
<g id="surface1">
<path style=" stroke:none;fill-rule:nonzero;fill:#FFFFFF;fill-opacity:1;" d="M 24.800781 1.984375 C 12.210938 1.984375 1.984375 12.210938 1.984375 24.800781 C 1.984375 37.390625 12.210938 47.617188 24.800781 47.617188 C 37.390625 47.617188 47.617188 37.390625 47.617188 24.800781 C 47.617188 12.210938 37.390625 1.984375 24.800781 1.984375 Z M 24.800781 3.96875 C 36.320313 3.96875 45.636719 13.285156 45.636719 24.800781 C 45.636719 36.320313 36.320313 45.636719 24.800781 45.636719 C 13.285156 45.636719 3.96875 36.320313 3.96875 24.800781 C 3.96875 13.285156 13.285156 3.96875 24.800781 3.96875 Z M 17.816406 12.933594 C 17.550781 12.9375 17.300781 13.039063 17.113281 13.226563 C 16.925781 13.414063 16.824219 13.664063 16.824219 13.929688 L 16.824219 13.949219 C 16.824219 13.953125 16.824219 13.953125 16.824219 13.957031 L 16.90625 35.75 C 16.90625 36.105469 17.097656 36.433594 17.40625 36.609375 C 17.714844 36.789063 18.09375 36.785156 18.398438 36.605469 L 37.207031 25.625 C 37.511719 25.445313 37.703125 25.117188 37.699219 24.761719 C 37.699219 24.40625 37.507813 24.082031 37.203125 23.902344 L 18.308594 13.066406 C 18.160156 12.980469 17.988281 12.9375 17.816406 12.933594 Z M 18.8125 15.644531 L 34.722656 24.773438 L 18.882813 34.023438 Z "/>
</g>
</svg>
