<?xml version="1.0" encoding="UTF-8"?>
<svg xmlns="http://www.w3.org/2000/svg" xmlns:xlink="http://www.w3.org/1999/xlink" width="50pt" height="50pt" viewBox="0 0 50 50" version="1.1">
<g id="surface1">
<path style=" stroke:none;fill-rule:nonzero;fill:#FFFFFF;fill-opacity:1;" d="M 12.898438 3.96875 C 12.6875 3.96875 12.480469 4.03125 12.304688 4.164063 L 8.929688 6.695313 L 5.558594 4.164063 C 5.257813 3.9375 4.851563 3.90625 4.515625 4.078125 C 4.175781 4.246094 3.96875 4.585938 3.96875 4.960938 L 3.96875 42.746094 C 3.96875 44.34375 5.21875 45.636719 6.765625 45.636719 L 34.722656 45.636719 C 34.988281 45.636719 35.238281 45.527344 35.425781 45.347656 L 45.347656 35.425781 C 45.527344 35.238281 45.636719 34.988281 45.636719 34.722656 L 45.636719 4.960938 C 45.636719 4.585938 45.425781 4.246094 45.089844 4.078125 C 44.75 3.90625 44.34375 3.9375 44.050781 4.164063 L 40.675781 6.695313 L 37.300781 4.164063 C 36.941406 3.898438 36.46875 3.898438 36.113281 4.164063 L 32.738281 6.695313 L 29.363281 4.164063 C 29.007813 3.898438 28.535156 3.898438 28.175781 4.164063 L 24.800781 6.695313 L 21.425781 4.164063 C 21.070313 3.898438 20.597656 3.898438 20.242188 4.164063 L 16.863281 6.695313 L 13.488281 4.164063 C 13.3125 4.03125 13.105469 3.96875 12.898438 3.96875 Z M 8.929688 11.90625 L 40.675781 11.90625 L 40.675781 15.871094 L 8.929688 15.871094 Z M 8.929688 20.832031 L 21.824219 20.832031 L 21.824219 32.738281 L 8.929688 32.738281 Z M 25.792969 20.832031 L 40.675781 20.832031 L 40.675781 22.816406 L 25.792969 22.816406 Z M 13.09375 23.808594 L 11.90625 25 L 11.90625 28.472656 L 13.09375 29.5625 L 17.660156 29.5625 L 18.847656 28.472656 L 18.847656 26.09375 L 16.566406 26.09375 L 15.378906 27.28125 L 17.660156 27.28125 L 17.660156 28.472656 L 13.09375 28.472656 Z M 13.09375 25 L 14.1875 25 L 14.1875 28.472656 L 15.378906 27.28125 L 15.378906 25 L 18.847656 25 L 17.660156 23.808594 L 14.1875 23.808594 Z M 25.792969 24.800781 L 40.675781 24.800781 L 40.675781 26.785156 L 25.792969 26.785156 Z M 25.792969 28.769531 L 40.675781 28.769531 L 40.675781 30.753906 L 25.792969 30.753906 Z M 25.792969 32.738281 L 31.746094 32.738281 L 31.746094 34.722656 L 25.792969 34.722656 Z M 34.722656 34.722656 L 43.242188 34.722656 L 34.722656 43.242188 Z M 8.929688 36.707031 L 21.824219 36.707031 L 21.824219 38.691406 L 8.929688 38.691406 Z M 25.792969 36.707031 L 31.746094 36.707031 L 31.746094 38.691406 L 25.792969 38.691406 Z "/>
</g>
</svg>
