<?xml version="1.0" encoding="UTF-8"?>
<svg xmlns="http://www.w3.org/2000/svg" xmlns:xlink="http://www.w3.org/1999/xlink" width="50pt" height="50pt" viewBox="0 0 50 50" version="1.1">
<g id="surface1">
<path style=" stroke:none;fill-rule:nonzero;fill:#FFFFFF;fill-opacity:1;" d="M 5.953125 1.984375 L 5.953125 47.617188 L 43.652344 47.617188 L 43.652344 1.984375 Z M 16.863281 34.722656 L 12.898438 34.722656 L 12.898438 31.746094 L 16.863281 31.746094 Z M 16.863281 29.761719 L 12.898438 29.761719 L 12.898438 25.792969 L 16.863281 25.792969 Z M 16.863281 23.808594 L 12.898438 23.808594 L 12.898438 20.832031 L 16.863281 20.832031 Z M 29.761719 25.792969 L 29.761719 29.761719 L 18.847656 29.761719 L 18.847656 25.792969 Z M 18.847656 23.808594 L 18.847656 20.832031 L 29.761719 20.832031 L 29.761719 23.808594 Z M 29.761719 31.746094 L 29.761719 34.722656 L 18.847656 34.722656 L 18.847656 31.746094 Z M 36.707031 41.667969 L 24.800781 41.667969 L 24.800781 39.683594 L 36.707031 39.683594 Z M 36.707031 34.722656 L 31.746094 34.722656 L 31.746094 31.746094 L 36.707031 31.746094 Z M 36.707031 29.761719 L 31.746094 29.761719 L 31.746094 25.792969 L 36.707031 25.792969 Z M 36.707031 23.808594 L 31.746094 23.808594 L 31.746094 20.832031 L 36.707031 20.832031 Z M 36.707031 12.898438 L 12.898438 12.898438 L 12.898438 10.914063 L 36.707031 10.914063 Z "/>
</g>
</svg>
