<?xml version="1.0" encoding="UTF-8"?>
<svg xmlns="http://www.w3.org/2000/svg" xmlns:xlink="http://www.w3.org/1999/xlink" width="50pt" height="50pt" viewBox="0 0 50 50" version="1.1">
<g id="surface1">
<path style=" stroke:none;fill-rule:nonzero;fill:#FFFFFF;fill-opacity:1;" d="M 5.953125 7.9375 C 3.214844 7.9375 0.992188 10.160156 0.992188 12.898438 L 0.992188 22.816406 L 6.625 22.816406 C 6.984375 23.566406 7.480469 24.226563 8.066406 24.800781 L 0.992188 24.800781 L 0.992188 35.714844 C 0.992188 38.449219 3.214844 40.675781 5.953125 40.675781 L 15.871094 40.675781 L 15.871094 29.050781 L 16.863281 28.074219 L 17.855469 29.050781 L 17.855469 40.675781 L 43.652344 40.675781 C 46.386719 40.675781 48.609375 38.449219 48.609375 35.714844 L 48.609375 24.800781 L 25.664063 24.800781 C 26.25 24.226563 26.746094 23.566406 27.101563 22.816406 L 48.609375 22.816406 L 48.609375 12.898438 C 48.609375 10.160156 46.386719 7.9375 43.652344 7.9375 L 17.855469 7.9375 L 17.855469 13.578125 C 17.511719 13.742188 17.179688 13.929688 16.863281 14.152344 C 16.550781 13.929688 16.21875 13.742188 15.871094 13.578125 L 15.871094 7.9375 Z M 12.898438 14.882813 C 13.203125 14.882813 13.496094 14.914063 13.785156 14.96875 C 13.847656 14.980469 13.910156 14.988281 13.964844 15.003906 C 14.226563 15.0625 14.476563 15.140625 14.722656 15.238281 C 14.8125 15.273438 14.894531 15.316406 14.980469 15.359375 C 15.148438 15.433594 15.308594 15.519531 15.457031 15.613281 C 15.617188 15.714844 15.769531 15.820313 15.914063 15.933594 C 16.003906 16 16.09375 16.074219 16.179688 16.148438 C 16.429688 16.371094 16.664063 16.621094 16.863281 16.894531 C 17.066406 16.621094 17.300781 16.371094 17.550781 16.148438 C 17.636719 16.074219 17.726563 16 17.816406 15.933594 C 17.960938 15.820313 18.109375 15.710938 18.273438 15.613281 C 18.421875 15.519531 18.585938 15.433594 18.75 15.359375 C 18.835938 15.316406 18.917969 15.273438 19.007813 15.238281 C 19.253906 15.140625 19.503906 15.0625 19.765625 15.003906 C 19.820313 14.988281 19.882813 14.980469 19.945313 14.96875 C 20.234375 14.914063 20.527344 14.882813 20.832031 14.882813 C 23.570313 14.882813 25.792969 17.105469 25.792969 19.839844 C 25.792969 22.578125 23.570313 24.800781 20.832031 24.800781 L 19.203125 24.800781 L 23.515625 29.050781 L 22.121094 30.472656 L 16.863281 25.285156 L 11.609375 30.472656 L 10.214844 29.050781 L 14.527344 24.800781 L 12.898438 24.800781 C 10.160156 24.800781 7.9375 22.578125 7.9375 19.839844 C 7.9375 17.105469 10.160156 14.882813 12.898438 14.882813 Z M 12.898438 16.863281 C 11.257813 16.863281 9.921875 18.203125 9.921875 19.839844 C 9.921875 21.480469 11.257813 22.816406 12.898438 22.816406 L 15.871094 22.816406 L 15.871094 19.839844 C 15.871094 18.203125 14.535156 16.863281 12.898438 16.863281 Z M 20.832031 16.863281 C 19.195313 16.863281 17.855469 18.203125 17.855469 19.839844 L 17.855469 22.816406 L 20.832031 22.816406 C 22.472656 22.816406 23.808594 21.480469 23.808594 19.839844 C 23.808594 18.203125 22.472656 16.863281 20.832031 16.863281 Z M 31.746094 32.738281 C 32.292969 32.738281 32.738281 33.183594 32.738281 33.730469 C 32.738281 34.277344 32.292969 34.722656 31.746094 34.722656 C 31.199219 34.722656 30.753906 34.277344 30.753906 33.730469 C 30.753906 33.183594 31.199219 32.738281 31.746094 32.738281 Z M 34.722656 32.738281 C 35.269531 32.738281 35.714844 33.183594 35.714844 33.730469 C 35.714844 34.277344 35.269531 34.722656 34.722656 34.722656 C 34.175781 34.722656 33.730469 34.277344 33.730469 33.730469 C 33.730469 33.183594 34.175781 32.738281 34.722656 32.738281 Z M 37.699219 32.738281 C 38.246094 32.738281 38.691406 33.183594 38.691406 33.730469 C 38.691406 34.277344 38.246094 34.722656 37.699219 34.722656 C 37.152344 34.722656 36.707031 34.277344 36.707031 33.730469 C 36.707031 33.183594 37.152344 32.738281 37.699219 32.738281 Z M 40.675781 32.738281 C 41.222656 32.738281 41.667969 33.183594 41.667969 33.730469 C 41.667969 34.277344 41.222656 34.722656 40.675781 34.722656 C 40.128906 34.722656 39.683594 34.277344 39.683594 33.730469 C 39.683594 33.183594 40.128906 32.738281 40.675781 32.738281 Z "/>
</g>
</svg>
