<?xml version="1.0" encoding="UTF-8"?>
<svg xmlns="http://www.w3.org/2000/svg" xmlns:xlink="http://www.w3.org/1999/xlink" width="50pt" height="50pt" viewBox="0 0 50 50" version="1.1">
<g id="surface1">
<path style=" stroke:none;fill-rule:nonzero;fill:#FFFFFF;fill-opacity:1;" d="M 9.921875 5.953125 C 6.054688 5.953125 2.976563 9.03125 2.976563 12.898438 C 2.976563 16.765625 6.054688 19.839844 9.921875 19.839844 C 13.789063 19.839844 16.863281 16.765625 16.863281 12.898438 C 16.863281 9.03125 13.789063 5.953125 9.921875 5.953125 Z M 35.714844 5.953125 L 35.714844 9.921875 L 41.148438 9.921875 L 35.644531 15.972656 L 31.746094 12.074219 L 20.832031 22.988281 L 16.929688 19.085938 L 4.621094 30.277344 L 7.285156 33.214844 L 16.800781 24.566406 L 20.832031 28.597656 L 31.746094 17.6875 L 35.78125 21.722656 L 43.652344 13.066406 L 43.652344 17.855469 L 47.617188 17.855469 L 47.617188 5.953125 Z M 9.425781 10.21875 L 10.816406 10.21875 L 10.816406 15.574219 L 9.03125 15.574219 L 9.03125 12 L 7.636719 12 Z M 41.667969 22.816406 L 41.667969 43.652344 L 45.636719 43.652344 L 45.636719 22.816406 Z M 27.777344 25.792969 L 27.777344 43.652344 L 31.746094 43.652344 L 31.746094 25.792969 Z M 34.722656 25.792969 L 34.722656 43.652344 L 38.691406 43.652344 L 38.691406 25.792969 Z M 13.890625 30.753906 L 13.890625 43.652344 L 17.855469 43.652344 L 17.855469 30.753906 Z M 20.832031 31.746094 L 20.832031 43.652344 L 24.800781 43.652344 L 24.800781 31.746094 Z M 6.945313 35.714844 L 6.945313 43.652344 L 10.914063 43.652344 L 10.914063 35.714844 Z "/>
</g>
</svg>
