<?xml version="1.0" encoding="UTF-8"?>
<svg xmlns="http://www.w3.org/2000/svg" xmlns:xlink="http://www.w3.org/1999/xlink" width="50pt" height="50pt" viewBox="0 0 50 50" version="1.1">
<g id="surface1">
<path style=" stroke:none;fill-rule:nonzero;fill:#FFFFFF;fill-opacity:1;" d="M 31.839844 0 C 31.507813 -0.0351563 31.183594 0.105469 30.972656 0.371094 L 27.996094 4.09375 C 27.523438 4.683594 26.824219 5.101563 26.074219 5.207031 L 25.792969 5.238281 C 24.46875 5.425781 21.9375 6.902344 20.679688 9.984375 C 19.417969 13.0625 15.59375 22.722656 15.59375 22.722656 C 14.984375 24.246094 15.714844 25.992188 17.238281 26.601563 C 18.761719 27.210938 20.503906 26.480469 21.113281 24.957031 L 25.515625 13.890625 L 46.6875 13.890625 L 49.449219 9.457031 C 49.597656 9.214844 49.652344 8.921875 49.570313 8.648438 C 49.496094 8.378906 49.300781 8.148438 49.046875 8.03125 L 32.179688 0.09375 C 32.074219 0.0429688 31.949219 0.0117188 31.839844 0 Z M 16.089844 12.929688 C 13.761719 12.929688 11.582031 14.09375 10.292969 16.027344 L 6.230469 22.136719 L 0.433594 25.980469 C 0.09375 26.207031 -0.0585938 26.632813 0.03125 27.035156 L 0.867188 30.785156 L 4 44.890625 C 4.101563 45.34375 4.496094 45.664063 4.960938 45.664063 L 9.921875 45.664063 L 9.921875 43.621094 C 9.921875 41.453125 11.703125 39.683594 13.890625 39.683594 C 15.078125 39.683594 16.136719 40.226563 16.863281 41.046875 C 17.59375 40.226563 18.652344 39.683594 19.839844 39.683594 C 21.03125 39.683594 22.089844 40.226563 22.816406 41.046875 C 23.546875 40.226563 24.605469 39.683594 25.792969 39.683594 C 26.984375 39.683594 28.042969 40.226563 28.769531 41.046875 C 29.5 40.226563 30.554688 39.683594 31.746094 39.683594 C 33.933594 39.683594 35.714844 41.453125 35.714844 43.621094 L 35.714844 45.664063 L 41.667969 45.664063 C 43.308594 45.664063 44.644531 44.332031 44.644531 42.691406 C 44.644531 41.046875 43.308594 39.714844 41.667969 39.714844 L 39.683594 39.714844 C 39.132813 39.714844 38.691406 39.273438 38.691406 38.722656 C 38.691406 38.171875 39.132813 37.730469 39.683594 37.730469 L 42.660156 37.730469 C 44.300781 37.730469 45.636719 36.394531 45.636719 34.753906 C 45.636719 33.109375 44.300781 31.777344 42.660156 31.777344 L 40.675781 31.777344 C 40.125 31.777344 39.683594 31.335938 39.683594 30.785156 C 39.683594 30.234375 40.125 29.792969 40.675781 29.792969 L 43.652344 29.792969 C 45.292969 29.792969 46.628906 28.460938 46.628906 26.816406 C 46.628906 25.171875 45.292969 23.839844 43.652344 23.839844 L 41.667969 23.839844 C 41.117188 23.839844 40.675781 23.398438 40.675781 22.847656 C 40.675781 22.296875 41.117188 21.855469 41.667969 21.855469 L 44.644531 21.855469 C 46.285156 21.855469 47.617188 20.523438 47.617188 18.878906 C 47.617188 17.238281 46.285156 15.902344 44.644531 15.902344 L 26.878906 15.902344 L 22.941406 25.730469 C 22.167969 27.667969 20.320313 28.832031 18.351563 28.832031 C 17.742188 28.832031 17.09375 28.730469 16.492188 28.492188 C 13.953125 27.476563 12.71875 24.582031 13.734375 22.042969 L 17.390625 12.929688 Z M 13.890625 41.667969 C 12.792969 41.667969 11.90625 42.546875 11.90625 43.621094 L 11.90625 46.6875 C 11.90625 47.761719 12.792969 48.640625 13.890625 48.640625 C 14.984375 48.640625 15.871094 47.761719 15.871094 46.6875 L 15.871094 43.621094 C 15.871094 42.546875 14.984375 41.667969 13.890625 41.667969 Z M 19.839844 41.667969 C 18.746094 41.667969 17.855469 42.546875 17.855469 43.621094 L 17.855469 46.6875 C 17.855469 47.761719 18.746094 48.640625 19.839844 48.640625 C 20.9375 48.640625 21.824219 47.761719 21.824219 46.6875 L 21.824219 43.621094 C 21.824219 42.546875 20.9375 41.667969 19.839844 41.667969 Z M 25.792969 41.667969 C 24.695313 41.667969 23.808594 42.546875 23.808594 43.621094 L 23.808594 46.6875 C 23.808594 47.761719 24.695313 48.640625 25.792969 48.640625 C 26.890625 48.640625 27.777344 47.761719 27.777344 46.6875 L 27.777344 43.621094 C 27.777344 42.546875 26.890625 41.667969 25.792969 41.667969 Z M 31.746094 41.667969 C 30.648438 41.667969 29.761719 42.546875 29.761719 43.621094 L 29.761719 46.6875 C 29.761719 47.761719 30.648438 48.640625 31.746094 48.640625 C 32.84375 48.640625 33.730469 47.761719 33.730469 46.6875 L 33.730469 43.621094 C 33.730469 42.546875 32.84375 41.667969 31.746094 41.667969 Z "/>
</g>
</svg>
