<?xml version="1.0" encoding="UTF-8"?>
<svg xmlns="http://www.w3.org/2000/svg" xmlns:xlink="http://www.w3.org/1999/xlink" width="520pt" height="520pt" viewBox="0 0 520 520" version="1.1">
<g id="surface1">
<path style=" stroke:none;fill-rule:nonzero;fill:#FFFFFF;fill-opacity:1;" d="M 201.25 0.625 C 100.46875 -1.015625 56.796875 58.59375 54.375 141.25 L 8.75 141.25 C 5.78125 141.25 3.046875 142.890625 1.875 145.625 C 0.703125 148.359375 1.640625 151.015625 3.75 153.125 L 75 243.125 C 77.8125 246.015625 82.109375 246.015625 85 243.125 L 158.125 153.125 C 159.53125 151.71875 160 150 160 148.125 C 160 147.1875 159.765625 146.5625 159.375 145.625 C 158.203125 142.890625 155.46875 141.25 152.5 141.25 L 109.375 141.25 C 107.1875 43.828125 171.71875 5.390625 280 11.875 C 250.390625 4.609375 224.53125 1.015625 201.25 0.625 Z M 240 80 C 217.890625 80 200 97.890625 200 120 L 200 480 C 200 502.109375 217.890625 520 240 520 L 480 520 C 502.109375 520 520 502.109375 520 480 L 520 120 C 520 97.890625 502.109375 80 480 80 Z M 240 140 L 480 140 L 480 460 L 240 460 Z M 360 473.75 C 368.828125 473.75 376.25 480.546875 376.25 489.375 C 376.25 498.203125 368.828125 505.625 360 505.625 C 351.171875 505.625 343.75 498.203125 343.75 489.375 C 343.75 480.546875 351.171875 473.75 360 473.75 Z "/>
</g>
</svg>
