<?xml version="1.0" encoding="UTF-8"?>
<svg xmlns="http://www.w3.org/2000/svg" xmlns:xlink="http://www.w3.org/1999/xlink" width="48pt" height="48pt" viewBox="0 0 48 48" version="1.1">
<g id="surface1">
<path style=" stroke:none;fill-rule:nonzero;fill:#4E342E;fill-opacity:1;" d="M 6 25 L 9 18 L 6 13 L 42 13 L 39 18 L 42 25 Z "/>
<path style=" stroke:none;fill-rule:nonzero;fill:#795548;fill-opacity:1;" d="M 42 42 L 6 42 L 6 25 L 42 25 Z M 42 13 C 42 13 41.875 6 37 6 C 32.125 6 15.8125 6 11 6 C 6 6 6 13 6 13 Z "/>
<path style=" stroke:none;fill-rule:nonzero;fill:#5D4037;fill-opacity:1;" d="M 42 32 L 6 32 L 6 30 L 42 30 Z M 42 36 L 6 36 L 6 38 L 42 38 Z "/>
<path style=" stroke:none;fill-rule:nonzero;fill:#FFAB00;fill-opacity:1;" d="M 28 25 L 28 29 C 28 31.199219 26.199219 33 24 33 C 21.800781 33 20 31.199219 20 29 L 20 25 Z M 6 42 L 12 42 C 12 38.6875 9.3125 36 6 36 Z M 42 36 C 38.6875 36 36 38.6875 36 42 L 42 42 Z M 24 9 C 21.800781 9 20 10.800781 20 13 L 28 13 C 28 10.800781 26.199219 9 24 9 Z "/>
<path style=" stroke:none;fill-rule:nonzero;fill:#212121;fill-opacity:1;" d="M 9 18 L 6 13 L 42 13 L 39 18 Z "/>
<path style=" stroke:none;fill-rule:nonzero;fill:#FFC400;fill-opacity:1;" d="M 38 25 C 38 23.34375 36.65625 22 35 22 C 35 20.34375 33.65625 19 32 19 C 31.527344 19 31.085938 19.117188 30.6875 19.3125 C 30.265625 18.535156 29.449219 18 28.5 18 C 28.011719 18 27.558594 18.144531 27.175781 18.386719 C 26.84375 18.144531 26.441406 18 26 18 C 25.625 18 25.277344 18.109375 24.980469 18.289063 C 24.871094 17.007813 23.808594 16 22.5 16 C 21.269531 16 20.25 16.890625 20.042969 18.0625 C 19.867188 18.023438 19.6875 18 19.5 18 C 18.191406 18 17.128906 19.007813 17.019531 20.289063 C 16.722656 20.109375 16.375 20 16 20 C 14.894531 20 14 20.894531 14 22 C 14 22.019531 14.003906 22.035156 14.003906 22.050781 C 13.84375 22.019531 13.671875 22 13.5 22 C 12.117188 22 11 23.117188 11 24.5 C 11 24.671875 11.019531 24.839844 11.050781 25 Z "/>
<path style=" stroke:none;fill-rule:nonzero;fill:#FFE57F;fill-opacity:1;" d="M 37.941406 24.425781 C 37.914063 24.289063 37.871094 24.164063 37.828125 24.039063 C 37.8125 23.992188 37.804688 23.945313 37.785156 23.898438 C 37.71875 23.734375 37.640625 23.582031 37.546875 23.433594 C 37.546875 23.429688 37.546875 23.429688 37.546875 23.429688 C 37.015625 22.574219 36.078125 22 35 22 C 34.214844 22 33.503906 22.308594 32.96875 22.804688 C 32.988281 22.707031 33 22.605469 33 22.5 C 33 21.671875 32.328125 21 31.5 21 C 30.742188 21 30.125 21.5625 30.019531 22.289063 C 29.722656 22.109375 29.375 22 29 22 C 28.839844 22 28.6875 22.023438 28.535156 22.058594 C 28.085938 21.421875 27.34375 21 26.5 21 C 25.910156 21 25.375 21.214844 24.945313 21.554688 C 24.742188 20.664063 23.949219 20 23 20 C 22.128906 20 21.390625 20.5625 21.121094 21.34375 C 20.800781 21.125 20.414063 21 20 21 C 19.128906 21 18.390625 21.5625 18.121094 22.34375 C 17.800781 22.125 17.414063 22 17 22 C 16.324219 22 15.726563 22.339844 15.367188 22.851563 C 14.90625 22.332031 14.246094 22 13.5 22 C 12.683594 22 11.96875 22.394531 11.511719 23 C 11.441406 23.089844 11.382813 23.1875 11.328125 23.285156 C 11.3125 23.316406 11.292969 23.347656 11.277344 23.378906 C 11.234375 23.460938 11.195313 23.546875 11.160156 23.640625 C 11.136719 23.703125 11.117188 23.773438 11.101563 23.839844 C 11.082031 23.90625 11.058594 23.976563 11.046875 24.046875 C 11.019531 24.191406 11 24.34375 11 24.5 C 11 24.671875 11.019531 24.839844 11.050781 25 L 38 25 C 38 24.800781 37.980469 24.609375 37.941406 24.425781 Z "/>
<path style=" stroke:none;fill-rule:nonzero;fill:#FF1744;fill-opacity:1;" d="M 22 21 L 21 23 L 19 22 L 20 20 Z M 30 20 L 28 21 L 29 23 L 31 22 Z "/>
<path style=" stroke:none;fill-rule:nonzero;fill:#3E2723;fill-opacity:1;" d="M 24 31 C 23.449219 31 23 30.550781 23 30 L 23 29 C 23 28.449219 23.449219 28 24 28 C 24.550781 28 25 28.449219 25 29 L 25 30 C 25 30.550781 24.550781 31 24 31 Z "/>
</g>
</svg>
