<?xml version="1.0" encoding="UTF-8"?>
<svg xmlns="http://www.w3.org/2000/svg" xmlns:xlink="http://www.w3.org/1999/xlink" width="50pt" height="50pt" viewBox="0 0 50 50" version="1.1">
<g id="surface1">
<path style=" stroke:none;fill-rule:nonzero;fill:#C9AA71;fill-opacity:1;" d="M 4.960938 6.945313 C 2.230469 6.945313 0 9.175781 0 11.90625 L 0 37.699219 C 0 40.425781 2.230469 42.660156 4.960938 42.660156 L 44.644531 42.660156 C 47.371094 42.660156 49.601563 40.425781 49.601563 37.699219 L 49.601563 11.90625 C 49.601563 9.175781 47.371094 6.945313 44.644531 6.945313 Z M 4.960938 8.929688 L 44.644531 8.929688 C 46.296875 8.929688 47.617188 10.25 47.617188 11.90625 L 47.617188 37.699219 C 47.617188 39.351563 46.296875 40.675781 44.644531 40.675781 L 4.960938 40.675781 C 3.304688 40.675781 1.984375 39.351563 1.984375 37.699219 L 1.984375 11.90625 C 1.984375 10.25 3.304688 8.929688 4.960938 8.929688 Z M 29.453125 19.253906 C 26.375 19.253906 24.800781 20.765625 24.800781 22.695313 C 24.800781 26.175781 28.832031 25.707031 28.832031 27.5 C 28.832031 27.800781 28.597656 28.523438 26.910156 28.523438 C 25.214844 28.523438 24.121094 27.871094 24.121094 27.871094 L 23.59375 30.226563 C 23.59375 30.226563 24.6875 30.847656 26.785156 30.847656 C 28.882813 30.847656 31.777344 29.242188 31.777344 26.910156 C 31.777344 24.105469 27.746094 23.882813 27.746094 22.632813 C 27.746094 21.992188 28.242188 21.515625 29.699219 21.515625 C 30.644531 21.515625 31.714844 22.226563 31.714844 22.226563 L 32.210938 19.808594 C 32.210938 19.808594 30.804688 19.253906 29.453125 19.253906 Z M 16.339844 19.46875 L 13.671875 27.34375 C 13.671875 27.34375 13.488281 26.671875 13.425781 26.257813 C 11.902344 22.839844 9.425781 21.578125 9.425781 21.578125 L 11.78125 30.507813 L 15.003906 30.507813 L 19.46875 19.46875 Z M 20.617188 19.46875 L 18.878906 30.507813 L 21.824219 30.507813 L 23.59375 19.46875 Z M 36.519531 19.46875 L 31.714844 30.507813 L 34.628906 30.507813 L 35.21875 28.925781 L 38.875 28.925781 L 39.1875 30.507813 L 41.851563 30.507813 L 39.589844 19.46875 Z M 6.199219 19.5 C 6.199219 19.5 11.960938 21.28125 13.300781 25.609375 L 12.308594 20.585938 C 12.308594 20.585938 11.882813 19.5 10.726563 19.5 Z M 37.636719 22.664063 L 38.441406 26.816406 L 36.023438 26.816406 Z "/>
</g>
</svg>
